<svg xmlns="http://www.w3.org/2000/svg" viewBox="0 0 9.19 10.6"><defs><style>.cls-1{fill:#606161;}</style></defs><title>Asset 1Blue logo</title><g id="Layer_2" data-name="Layer 2"><g id="Layer_1-2" data-name="Layer 1"><path class="cls-1" d="M0,6.76l.05-.13a6.3,6.3,0,0,1,.62.65A21.65,21.65,0,0,0,3,9.68a1,1,0,0,0,1.47,0L7.05,7,8.39,5.68c.06-.07.1-.16.15-.23s0-.06,0-.08l.61-.59a4.77,4.77,0,0,1-.06.86.89.89,0,0,1-.25.44c-.75.77-1.52,1.53-2.27,2.29l-1.7,1.7a1.7,1.7,0,0,1-2.46,0L.55,8.19a1.8,1.8,0,0,1-.53-1s0,0,0,0Z" transform="translate(0 0)"/><path class="cls-1" d="M9.17,1.39V4a1,1,0,0,1-.3.71l-4,4a1.65,1.65,0,0,1-2.37,0l-2-2a1.67,1.67,0,0,1,0-2.37q2-2,4-4A1,1,0,0,1,5.27,0H8.63a.52.52,0,0,1,.56.56v.83ZM8.57.64H8.48L5.24.65a.51.51,0,0,0-.3.15c-1.33,1.31-2.64,2.63-4,4A1,1,0,0,0,1,6.29L2.92,8.23l.14.13A1,1,0,0,0,4.47,8.2l3.9-3.89a.6.6,0,0,0,.19-.46c0-.63,0-1.26,0-1.89Z" transform="translate(0 0)"/><path class="cls-1" d="M6.07,2.24a.86.86,0,0,1,.87-.87.89.89,0,0,1,.88.9.88.88,0,1,1-1.75,0Zm.39,0a.47.47,0,0,0,.45.47.49.49,0,0,0,.48-.48.47.47,0,0,0-.93,0Z" transform="translate(0 0)"/></g></g></svg>