<svg xmlns="http://www.w3.org/2000/svg" viewBox="0 0 38.15 26.66"><defs><style>.cls-1{fill:#f5f6f6;stroke:#e0e0df;}.cls-1,.cls-2{stroke-miterlimit:10;}.cls-2{fill:#e03743;stroke:#e03743;stroke-width:0.25px;}</style></defs><title>Asset 1Blue logo</title><g id="Layer_2" data-name="Layer 2"><g id="Layer_1-2" data-name="Layer 1"><rect class="cls-1" x="0.5" y="0.5" width="37.15" height="25.66" rx="3.06"/><path class="cls-2" d="M14.91,10h-.34a.32.32,0,1,1,0-.64h2.25a.19.19,0,0,1,0-.08,2.74,2.74,0,0,1,0-.5A.93.93,0,0,1,17.81,8h1.9a1,1,0,0,1,1,1v.28h2.24a.32.32,0,0,1,.34.33A.31.31,0,0,1,23,10h-.3s-.06,0-.06,0c0,.44-.07.88-.1,1.33l-.12,1.49-.12,1.64-.15,1.87c0,.36-.05.72-.08,1.08a1,1,0,0,1-.53.84.91.91,0,0,1-.43.1H16.45a.94.94,0,0,1-.95-.85c0-.37-.06-.74-.09-1.1s-.05-.58-.07-.86v-.24c0,.12.14.15.25.18a.41.41,0,0,0,.32-.06l.06,0,0,.33.12,1.63c0,.26.13.36.38.36h4.56a.32.32,0,0,0,.34-.3c0-.43.06-.85.1-1.28s.07-.92.1-1.39l.09-1c0-.57.08-1.14.13-1.71L22,10V10H16.52a.19.19,0,0,1-.16-.09.06.06,0,0,1,0-.06h.05l.1.07h0l-.13-.1h0l-.16.15h0s.05,0,.07,0l.09.06v0h-.83c0,.1,0,.2,0,.3a1.64,1.64,0,0,1,0,.23.14.14,0,0,1,0,.06.08.08,0,0,0,0,.12v-.09h0l.3,4a.5.5,0,0,0-.62.26Zm2.56-.65h2.59a1.92,1.92,0,0,1,0-.24.35.35,0,0,0-.4-.41H17.82a.31.31,0,0,0-.35.29C17.46,9.09,17.47,9.2,17.47,9.32Zm-2.23,1.61,0,.08h0l0-.09s-.06,0-.07.06a.06.06,0,0,0,0,.06s.07.07.1.07.08,0,.12-.07l0,0c-.05,0-.09.13-.17,0S15.19,11,15.24,10.93Zm1.27-1.24,0,0s.06.06.1.06.06,0,.1,0v0C16.58,9.77,16.58,9.77,16.51,9.69Zm-1.05,1.05,0,0s-.07,0-.08.08,0,.06,0,.09h0C15.36,10.8,15.39,10.76,15.46,10.74Zm-.3.51-.1-.16S15.05,11.17,15.16,11.25Z"/><path class="cls-2" d="M15.91,14.79a.28.28,0,0,0-.27,0,.25.25,0,0,0-.13.28.2.2,0,0,0,.21.17.15.15,0,0,0,.15-.12s0-.05,0-.07h0a.09.09,0,0,0,0,.06c0,.05,0,.08-.07.09a.13.13,0,0,1-.1-.1c0-.18.08-.25.26-.21l.06,0,0,.47h0v0l-.25.06a.29.29,0,0,1-.27-.16.39.39,0,0,1,.27-.59h.13C15.92,14.67,15.92,14.67,15.91,14.79Z"/><path class="cls-2" d="M15.24,10.93q-.08.06,0,.12c.08.09.12,0,.17,0l0,0s-.08.07-.12.07-.07,0-.1-.07a.06.06,0,0,1,0-.06s.05,0,.07-.06l0,.09h0Z"/><path class="cls-2" d="M16.51,9.69c.07.08.07.08.17,0v0s-.07,0-.1,0-.07,0-.1-.06Z"/><path class="cls-2" d="M15.46,10.74c-.07,0-.1.06-.06.14h0s0-.07,0-.09.05,0,.08-.08Z"/><path class="cls-2" d="M15.16,11.25c-.11-.08-.13-.12-.1-.16Z"/></g></g></svg>